{
  "asset": {
    "version": "2.0",
    "generator": "LowPoly Ship Designer"
  },
  "scene": 0,
  "scenes": [
    {
      "nodes": [
        0,
        1,
        2,
        3,
        4,
        5,
        6
      ]
    }
  ],
  "nodes": [
    {
      "name": "Fuselage 1",
      "mesh": 0
    },
    {
      "name": "Wing 1",
      "mesh": 1
    },
    {
      "name": "Fin 1",
      "mesh": 2
    },
    {
      "name": "Fin 2",
      "mesh": 3
    },
    {
      "name": "Engine 1",
      "mesh": 4
    },
    {
      "name": "Cockpit 1",
      "mesh": 5
    },
    {
      "name": "Weapon 1",
      "mesh": 6
    }
  ],
  "meshes": [
    {
      "name": "Fuselage 1",
      "primitives": [
        {
          "attributes": {
            "POSITION": 0,
            "NORMAL": 1,
            "COLOR_0": 2
          },
          "mode": 4
        }
      ]
    },
    {
      "name": "Wing 1",
      "primitives": [
        {
          "attributes": {
            "POSITION": 3,
            "NORMAL": 4,
            "COLOR_0": 5
          },
          "mode": 4
        }
      ]
    },
    {
      "name": "Fin 1",
      "primitives": [
        {
          "attributes": {
            "POSITION": 6,
            "NORMAL": 7,
            "COLOR_0": 8
          },
          "mode": 4
        }
      ]
    },
    {
      "name": "Fin 2",
      "primitives": [
        {
          "attributes": {
            "POSITION": 9,
            "NORMAL": 10,
            "COLOR_0": 11
          },
          "mode": 4
        }
      ]
    },
    {
      "name": "Engine 1",
      "primitives": [
        {
          "attributes": {
            "POSITION": 12,
            "NORMAL": 13,
            "COLOR_0": 14
          },
          "mode": 4
        }
      ]
    },
    {
      "name": "Cockpit 1",
      "primitives": [
        {
          "attributes": {
            "POSITION": 15,
            "NORMAL": 16,
            "COLOR_0": 17
          },
          "mode": 4
        }
      ]
    },
    {
      "name": "Weapon 1",
      "primitives": [
        {
          "attributes": {
            "POSITION": 18,
            "NORMAL": 19,
            "COLOR_0": 20
          },
          "mode": 4
        }
      ]
    }
  ],
  "accessors": [
    {
      "bufferView": 0,
      "componentType": 5126,
      "count": 54,
      "type": "VEC3",
      "min": [
        -0.4330126941204071,
        -0.5,
        -1.7
      ],
      "max": [
        0.4330126941204071,
        0.5,
        1.7
      ]
    },
    {
      "bufferView": 1,
      "componentType": 5126,
      "count": 54,
      "type": "VEC3"
    },
    {
      "bufferView": 2,
      "componentType": 5126,
      "count": 54,
      "type": "VEC3"
    },
    {
      "bufferView": 3,
      "componentType": 5126,
      "count": 36,
      "type": "VEC3",
      "min": [
        -1.6199999570846557,
        -0.03999999910593033,
        -1.4499999940395356
      ],
      "max": [
        1.6199999570846557,
        0.03999999910593033,
        -0.7500000059604646
      ]
    },
    {
      "bufferView": 4,
      "componentType": 5126,
      "count": 36,
      "type": "VEC3"
    },
    {
      "bufferView": 5,
      "componentType": 5126,
      "count": 36,
      "type": "VEC3"
    },
    {
      "bufferView": 6,
      "componentType": 5126,
      "count": 36,
      "type": "VEC3",
      "min": [
        -1.6239999994635583,
        -0.6400000214576721,
        -1.9000000089406968
      ],
      "max": [
        -1.5760000005364418,
        0.44000002145767214,
        -0.6999999910593033
      ]
    },
    {
      "bufferView": 7,
      "componentType": 5126,
      "count": 36,
      "type": "VEC3"
    },
    {
      "bufferView": 8,
      "componentType": 5126,
      "count": 36,
      "type": "VEC3"
    },
    {
      "bufferView": 9,
      "componentType": 5126,
      "count": 36,
      "type": "VEC3",
      "min": [
        1.5760000005364418,
        -0.7300000250339507,
        -1.9000000089406968
      ],
      "max": [
        1.6239999994635583,
        0.5300000250339507,
        -0.6999999910593033
      ]
    },
    {
      "bufferView": 10,
      "componentType": 5126,
      "count": 36,
      "type": "VEC3"
    },
    {
      "bufferView": 11,
      "componentType": 5126,
      "count": 36,
      "type": "VEC3"
    },
    {
      "bufferView": 12,
      "componentType": 5126,
      "count": 72,
      "type": "VEC3",
      "min": [
        -0.45466332882642746,
        -0.525,
        -2.7100000202655794
      ],
      "max": [
        0.45466332882642746,
        0.525,
        -1.689999979734421
      ]
    },
    {
      "bufferView": 13,
      "componentType": 5126,
      "count": 72,
      "type": "VEC3"
    },
    {
      "bufferView": 14,
      "componentType": 5126,
      "count": 72,
      "type": "VEC3"
    },
    {
      "bufferView": 15,
      "componentType": 5126,
      "count": 126,
      "type": "VEC3",
      "min": [
        -0.27999999523162844,
        0.3,
        -1.542487120628357
      ],
      "max": [
        0.27999999523162844,
        0.5799999952316284,
        -1.057512879371643
      ]
    },
    {
      "bufferView": 16,
      "componentType": 5126,
      "count": 126,
      "type": "VEC3"
    },
    {
      "bufferView": 17,
      "componentType": 5126,
      "count": 126,
      "type": "VEC3"
    },
    {
      "bufferView": 18,
      "componentType": 5126,
      "count": 48,
      "type": "VEC3",
      "min": [
        -0.09333809303035534,
        -0.3933380930303553,
        -1.34
      ],
      "max": [
        0.09333809303035533,
        -0.20666190696964465,
        1.74
      ]
    },
    {
      "bufferView": 19,
      "componentType": 5126,
      "count": 48,
      "type": "VEC3"
    },
    {
      "bufferView": 20,
      "componentType": 5126,
      "count": 48,
      "type": "VEC3"
    }
  ],
  "bufferViews": [
    {
      "buffer": 0,
      "byteOffset": 0,
      "byteLength": 648,
      "target": 34962
    },
    {
      "buffer": 0,
      "byteOffset": 648,
      "byteLength": 648,
      "target": 34962
    },
    {
      "buffer": 0,
      "byteOffset": 1296,
      "byteLength": 648,
      "target": 34962
    },
    {
      "buffer": 0,
      "byteOffset": 1944,
      "byteLength": 432,
      "target": 34962
    },
    {
      "buffer": 0,
      "byteOffset": 2376,
      "byteLength": 432,
      "target": 34962
    },
    {
      "buffer": 0,
      "byteOffset": 2808,
      "byteLength": 432,
      "target": 34962
    },
    {
      "buffer": 0,
      "byteOffset": 3240,
      "byteLength": 432,
      "target": 34962
    },
    {
      "buffer": 0,
      "byteOffset": 3672,
      "byteLength": 432,
      "target": 34962
    },
    {
      "buffer": 0,
      "byteOffset": 4104,
      "byteLength": 432,
      "target": 34962
    },
    {
      "buffer": 0,
      "byteOffset": 4536,
      "byteLength": 432,
      "target": 34962
    },
    {
      "buffer": 0,
      "byteOffset": 4968,
      "byteLength": 432,
      "target": 34962
    },
    {
      "buffer": 0,
      "byteOffset": 5400,
      "byteLength": 432,
      "target": 34962
    },
    {
      "buffer": 0,
      "byteOffset": 5832,
      "byteLength": 864,
      "target": 34962
    },
    {
      "buffer": 0,
      "byteOffset": 6696,
      "byteLength": 864,
      "target": 34962
    },
    {
      "buffer": 0,
      "byteOffset": 7560,
      "byteLength": 864,
      "target": 34962
    },
    {
      "buffer": 0,
      "byteOffset": 8424,
      "byteLength": 1512,
      "target": 34962
    },
    {
      "buffer": 0,
      "byteOffset": 9936,
      "byteLength": 1512,
      "target": 34962
    },
    {
      "buffer": 0,
      "byteOffset": 11448,
      "byteLength": 1512,
      "target": 34962
    },
    {
      "buffer": 0,
      "byteOffset": 12960,
      "byteLength": 576,
      "target": 34962
    },
    {
      "buffer": 0,
      "byteOffset": 13536,
      "byteLength": 576,
      "target": 34962
    },
    {
      "buffer": 0,
      "byteOffset": 14112,
      "byteLength": 576,
      "target": 34962
    }
  ],
  "buffers": [
    {
      "uri": "data:application/octet-stream;base64,",
      "byteLength": 14688
    }
  ]
}